<?xml version="1.0" standalone="no"?>
<!DOCTYPE svg PUBLIC "-//W3C//DTD SVG 20010904//EN"
 "http://www.w3.org/TR/2001/REC-SVG-20010904/DTD/svg10.dtd">
<svg version="1.0" xmlns="http://www.w3.org/2000/svg"
 width="85.078437pt" height="114.681696pt" viewBox="0 0 85.078437 114.681696"
 preserveAspectRatio="xMidYMid meet">
<metadata>
Created by Potrace Professional 1.1m
</metadata>
<g transform="translate(-24.740899,129.838739) rotate(-360.00) scale(0.095238,-0.095238)"
fill="#39bcc1" stroke="none">
<path d="M614 1352 c-2 -7 -6 -51 -7 -97 l-3 -84 -116 -32 c-81 -22 -116 -37
-118 -49 -2 -9 6 -55 18 -101 12 -46 22 -87 22 -89 0 -3 -30 -22 -67 -43 -37
-20 -73 -44 -80 -53 -13 -15 -6 -28 288 -531 l64 -110 258 -3 c209 -2 260 0
270 12 9 10 11 172 9 601 l-2 587 -266 3 c-206 2 -266 -1 -270 -11z m496 -588
l3 -554 -231 0 -231 0 0 550 c0 302 3 552 7 556 4 4 107 6 229 5 l221 -3 2
-554z m-503 -11 c1 -201 -1 -364 -6 -364 -6 0 -182 642 -185 678 -1 8 161 56
177 52 7 -2 12 -135 14 -366z m-135 -76 c23 -86 51 -190 62 -231 12 -40 20
-74 18 -76 -3 -3 -216 356 -243 408 -5 9 105 70 113 63 4 -3 26 -77 50 -164z"/>
</g>
</svg>
